<?xml version="1.0" encoding="utf-8"?>
<!-- Generator: Adobe Illustrator 16.0.4, SVG Export Plug-In . SVG Version: 6.00 Build 0)  -->
<!DOCTYPE svg PUBLIC "-//W3C//DTD SVG 1.1//EN" "http://www.w3.org/Graphics/SVG/1.1/DTD/svg11.dtd">
<svg version="1.1" id="图层_1" xmlns="http://www.w3.org/2000/svg" xmlns:xlink="http://www.w3.org/1999/xlink" x="0px" y="0px"
	 width="20px" height="30px" viewBox="0 0 20 30" enable-background="new 0 0 20 30" xml:space="preserve">
<path d="M8.179,16.865c0.4-0.914,0.83-1.787,1.289-2.621c0.458-0.833,0.933-1.603,1.42-2.307c0.574-0.827,1.026-1.423,1.357-1.788
	c0.213-0.235,0.413-0.429,0.601-0.581c0.108-0.087,0.28-0.152,0.516-0.196c0.569-0.104,0.968-0.156,1.194-0.156
	c0.101,0,0.149,0.035,0.149,0.104c0,0.065-0.049,0.144-0.149,0.235c-0.871,0.774-1.784,1.882-2.739,3.322
	c-0.955,1.44-1.76,2.97-2.418,4.588c-0.248,0.604-0.421,0.976-0.519,1.112c-0.098,0.138-0.403,0.205-0.917,0.205
	c-0.335,0-0.545-0.032-0.63-0.098s-0.238-0.271-0.46-0.62c-0.383-0.578-0.794-1.101-1.233-1.566c-0.23-0.243-0.346-0.43-0.346-0.56
	c0-0.184,0.128-0.363,0.385-0.539c0.257-0.176,0.468-0.265,0.633-0.265c0.23,0,0.508,0.13,0.832,0.389S7.813,16.23,8.179,16.865z"/>
</svg>
